<svg width="24" height="24" viewBox="0 0 24 24" fill="none" xmlns="http://www.w3.org/2000/svg">
<path fill-rule="evenodd" clip-rule="evenodd" d="M12 2C6.48 2 2 6.48 2 12C2 17.52 6.48 22 12 22C17.52 22 22 17.52 22 12C22 6.48 17.52 2 12 2ZM19.99 12.79C18.66 12.32 15.65 11.96 12.56 12.38C12.4 11.97 12.23 11.56 12.05 11.16C15.22 10.3 17.38 8.04 17.5 7.91C18.99 9.04 19.95 10.82 19.99 12.79ZM15.82 6.75C15.69 6.88 13.68 9.07 10.74 9.84C8.98 6.57 8.65 4.3 8.6 4.08C9.66 3.65 10.8 3.42 12 3.42C13.43 3.42 14.77 3.86 15.82 6.75ZM7.02 4.67C7.07 4.86 7.42 6.94 9.32 10.33C6.11 11.19 3.51 11.19 3.44 11.19C3.76 8.52 5.16 6.2 7.02 4.67ZM4 12C4 12.21 4 12.42 4.02 12.62C4.1 12.63 6.96 12.63 10.45 11.66C10.61 12.08 10.79 12.5 10.97 12.92C7.38 14 4.88 16.66 4.79 16.76C4.28 15.34 4 13.72 4 12ZM6.35 18.25C6.44 18.15 9.17 15.28 12.91 14.18C13.92 16.89 14.12 18.99 14.15 19.34C13.46 19.64 12.74 19.78 12 19.78C9.75 19.78 7.72 19.19 6.35 18.25ZM15.6 18.94C15.56 18.61 15.34 16.33 14.28 13.72C17.32 13.33 20.06 13.88 20.31 13.93C19.53 16.03 17.8 17.81 15.6 18.94Z" fill="black"/>
</svg>
